<svg xmlns="http://www.w3.org/2000/svg" xmlns:xlink="http://www.w3.org/1999/xlink" width="500" zoomAndPan="magnify" viewBox="0 0 375 374.999991" height="500" preserveAspectRatio="xMidYMid meet" version="1.0"><defs><g/><clipPath id="e4dce833b4"><path d="M 112.5 115.46875 L 262.5 115.46875 L 262.5 265.46875 L 112.5 265.46875 Z M 112.5 115.46875 " clip-rule="nonzero"/></clipPath></defs><g clip-path="url(#e4dce833b4)"><path fill="#231f20" d="M 187.5 115.46875 C 146.070312 115.46875 112.5 149.066406 112.5 190.46875 C 112.5 231.867188 146.070312 265.46875 187.5 265.46875 C 228.929688 265.46875 262.5 231.867188 262.5 190.46875 C 262.5 149.066406 228.929688 115.46875 187.5 115.46875 Z M 187.5 260.71875 C 148.699219 260.71875 117.246094 229.269531 117.246094 190.46875 C 117.246094 151.667969 148.699219 120.214844 187.5 120.214844 C 226.300781 120.214844 257.753906 151.667969 257.753906 190.46875 C 257.753906 229.269531 226.300781 260.71875 187.5 260.71875 Z M 187.5 260.71875 " fill-opacity="1" fill-rule="nonzero"/></g><g fill="#000000" fill-opacity="1"><g transform="translate(172.626663, 209.265423)"><g><path d="M -3.375 -6.359375 C -3.46875 -7.003906 -3.5 -7.648438 -3.46875 -8.296875 L -3.09375 -62.8125 C -3.113281 -65.46875 -2.394531 -67.671875 -0.9375 -69.421875 C 0.519531 -71.179688 2.425781 -72.238281 4.78125 -72.59375 C 7.5625 -73.007812 10.015625 -72.484375 12.140625 -71.015625 C 14.273438 -69.554688 15.554688 -67.4375 15.984375 -64.65625 C 16.078125 -64.007812 16.109375 -63.363281 16.078125 -62.71875 L 15.640625 -8.1875 C 15.660156 -5.539062 14.945312 -3.347656 13.5 -1.609375 C 12.0625 0.117188 10.171875 1.160156 7.828125 1.515625 C 5.046875 1.941406 2.585938 1.429688 0.453125 -0.015625 C -1.679688 -1.460938 -2.957031 -3.578125 -3.375 -6.359375 Z M -3.375 -6.359375 "/></g></g></g><g fill="#000000" fill-opacity="1"><g transform="translate(161.289521, 229.007448)"><g><path d="M 35.265625 -13.734375 L 26.96875 -14 L 26.578125 -0.625 C 26.566406 0.09375 26.488281 0.789062 26.34375 1.46875 C 25.78125 4.226562 24.394531 6.265625 22.1875 7.578125 C 19.988281 8.898438 17.515625 9.28125 14.765625 8.71875 C 12.492188 8.257812 10.675781 7.15625 9.3125 5.40625 C 7.957031 3.65625 7.328125 1.445312 7.421875 -1.21875 L 8.84375 -55.125 C 8.851562 -55.820312 8.929688 -56.523438 9.078125 -57.234375 C 10.128906 -62.367188 13.453125 -64.863281 19.046875 -64.71875 L 35.984375 -64.265625 C 37.941406 -64.179688 39.828125 -63.953125 41.640625 -63.578125 C 47.972656 -62.285156 53.039062 -59.359375 56.84375 -54.796875 C 60.644531 -50.242188 62.472656 -44.710938 62.328125 -38.203125 C 62.234375 -36.523438 62.03125 -34.9375 61.71875 -33.4375 C 60.445312 -27.226562 57.34375 -22.351562 52.40625 -18.8125 C 47.476562 -15.28125 41.765625 -13.585938 35.265625 -13.734375 Z M 35.265625 -46.75 L 27.859375 -47.03125 L 27.390625 -31.421875 L 34.828125 -31.296875 C 38.972656 -31.148438 41.457031 -33.082031 42.28125 -37.09375 C 42.75 -39.351562 42.535156 -41.351562 41.640625 -43.09375 C 40.609375 -45.03125 38.988281 -46.226562 36.78125 -46.6875 C 36.289062 -46.78125 35.785156 -46.800781 35.265625 -46.75 Z M 35.265625 -46.75 "/></g></g></g></svg>