<svg xmlns="http://www.w3.org/2000/svg" xmlns:xlink="http://www.w3.org/1999/xlink" width="500" zoomAndPan="magnify" viewBox="0 0 375 374.999991" height="500" preserveAspectRatio="xMidYMid meet" version="1.0"><defs><g/></defs><path fill="#000000" d="M 187.5 0 C 83.90625 0 0 83.90625 0 187.5 C 0 291.09375 83.90625 375 187.5 375 C 291.09375 375 375 291.09375 375 187.5 C 375 83.90625 291.09375 0 187.5 0 Z M 187.5 0 " fill-opacity="1" fill-rule="nonzero"/><g fill="#ffffff" fill-opacity="1"><g transform="translate(116.409438, 259.504092)"><g><path d="M 8.375 0 L 8.375 -2.203125 L 11.25 -2.203125 C 23.289062 -2.203125 29.3125 -7.492188 29.3125 -18.078125 L 29.3125 -140.203125 C 29.3125 -150.203125 23.289062 -155.203125 11.25 -155.203125 L 8.375 -155.203125 L 8.375 -157.40625 L 72.53125 -157.40625 L 72.53125 -155.203125 L 69.65625 -155.203125 C 57.613281 -155.203125 51.59375 -149.910156 51.59375 -139.328125 L 51.59375 -18.078125 C 51.59375 -7.492188 57.613281 -2.203125 69.65625 -2.203125 L 72.53125 -2.203125 L 72.53125 0 Z M 8.375 0 "/></g></g></g><g fill="#ffffff" fill-opacity="1"><g transform="translate(125.43212, 283.128001)"><g><path d="M 8.375 0 L 8.375 -2.203125 L 11.25 -2.203125 C 23.289062 -2.203125 29.3125 -7.492188 29.3125 -18.078125 L 29.3125 -140.203125 C 29.3125 -150.203125 23.289062 -155.203125 11.25 -155.203125 L 8.375 -155.203125 L 8.375 -157.40625 L 70.328125 -157.40625 C 88.847656 -157.40625 102.515625 -153.289062 111.328125 -145.0625 C 120.148438 -136.832031 124.5625 -125.585938 124.5625 -111.328125 C 124.5625 -102.660156 122.6875 -94.503906 118.9375 -86.859375 C 115.1875 -79.210938 108.972656 -73.035156 100.296875 -68.328125 C 91.628906 -63.628906 80.019531 -61.28125 65.46875 -61.28125 L 51.59375 -61.28125 L 51.59375 -18.078125 C 51.59375 -7.492188 57.613281 -2.203125 69.65625 -2.203125 L 72.53125 -2.203125 L 72.53125 0 Z M 51.59375 -63.484375 L 63.265625 -63.484375 C 76.640625 -63.484375 86.226562 -67.082031 92.03125 -74.28125 C 97.84375 -81.488281 100.75 -93.546875 100.75 -110.453125 C 100.75 -126.460938 98.140625 -137.921875 92.921875 -144.828125 C 87.703125 -151.742188 78.921875 -155.203125 66.578125 -155.203125 L 51.59375 -155.203125 Z M 51.59375 -63.484375 "/></g></g></g></svg>